<svg xmlns="http://www.w3.org/2000/svg" version="1.1" xmlns:xlink="http://www.w3.org/1999/xlink" xmlns:svgjs="http://svgjs.dev/svgjs" width="1500" height="1500" viewBox="0 0 1500 1500"><rect width="1500" height="1500" fill="#000000"></rect><g transform="matrix(0.6666666666666666,0,0,0.6666666666666666,249.39393939393932,595.6678387899478)"><svg viewBox="0 0 396 122" data-background-color="#ffffff" preserveAspectRatio="xMidYMid meet" height="462" width="1500" xmlns="http://www.w3.org/2000/svg" xmlns:xlink="http://www.w3.org/1999/xlink"><g id="tight-bounds" transform="matrix(1,0,0,1,0.24000000000003752,0.13157034943625945)"><svg viewBox="0 0 395.5199999999999 121.73685930112748" height="121.73685930112748" width="395.5199999999999"><g><svg viewBox="0 0 655.1173370879999 201.63816517701042" height="121.73685930112748" width="395.5199999999999"><g transform="matrix(1,0,0,1,257.61973708799997,56.97026538731991)"><svg viewBox="0 0 397.4975999999999 87.6976344023706" height="87.6976344023706" width="397.4975999999999"><g id="textblocktransform"><svg viewBox="0 0 397.4975999999999 87.6976344023706" height="87.6976344023706" width="397.4975999999999" id="textblock"><g><rect width="397.4975999999999" height="4.571096150016" x="0" y="56.0727991296" fill="#ffffff" opacity="1" stroke-width="0" stroke="transparent" fill-opacity="1" class="rect-qz-0" data-fill-palette-color="primary" rx="1%" id="qz-0" data-palette-color="#1c4b82"></rect></g><g transform="matrix(1,0,0,1,0.9887999999999693,0)"><svg viewBox="0 0 395.52 50.688" height="50.688" width="395.52"><g transform="matrix(1,0,0,1,0,0)"><svg width="395.52" viewBox="2.8 -35.85 283.21999999999997 36.300000000000004" height="50.688" data-palette-color="#1c4b82"><path d="M29.8-7.5L29.7 0.3 6.3-30.25Q5.6-31.15 4.95-31.43 4.3-31.7 3.05-31.8L3.05-31.8Q2.9-32.35 2.85-32.95 2.8-33.55 2.8-33.95L2.8-33.95Q3.3-33.9 3.93-33.88 4.55-33.85 5.23-33.83 5.9-33.8 6.5-33.8L6.5-33.8Q7.45-33.8 8.33-33.85 9.2-33.9 9.85-33.95L9.85-33.95 29.8-7.5ZM2.8 0.15L2.8 0.15Q2.8-0.5 2.85-1.03 2.9-1.55 3.05-2L3.05-2Q4.4-2 5.15-2.65 5.9-3.3 6.2-4.93 6.5-6.55 6.5-9.35L6.5-9.35 6.5-30.5 9.05-30.5 9.05-9.35Q9.05-6.55 9.35-4.93 9.65-3.3 10.4-2.65 11.15-2 12.5-2L12.5-2Q12.65-1.55 12.7-1.05 12.75-0.55 12.75 0.15L12.75 0.15Q12 0.1 11.13 0.08 10.25 0.05 9.4 0.03 8.55 0 7.8 0L7.8 0Q7.1 0 6.15 0.03 5.2 0.05 4.33 0.08 3.45 0.1 2.8 0.15ZM29.7 0.3L29.7 0.3 29.3-4.7 29.3-24.7Q29.3-27.45 29-28.98 28.7-30.5 27.95-31.15 27.2-31.8 25.85-31.8L25.85-31.8Q25.7-32.65 25.65-33.08 25.6-33.5 25.6-33.95L25.6-33.95Q26.35-33.9 27.15-33.88 27.95-33.85 28.78-33.83 29.6-33.8 30.3-33.8L30.3-33.8Q31.35-33.8 32.7-33.85 34.05-33.9 35.05-33.95L35.05-33.95Q35.05-33.45 35-32.9 34.95-32.35 34.8-31.8L34.8-31.8Q33.7-31.8 33.05-31.15 32.4-30.5 32.13-28.98 31.85-27.45 31.85-24.7L31.85-24.7 31.85 0Q31.45 0.15 30.85 0.23 30.25 0.3 29.7 0.3ZM54.25 0.45L54.25 0.45Q53.7 0.2 53.37-0.45 53.05-1.1 53.05-2.5L53.05-2.5Q53.05-2.95 53.1-3.58 53.15-4.2 53.3-4.7L53.3-4.7 53.4-4.7Q53.25-3.9 52.72-2.98 52.2-2.05 51.35-1.35L51.35-1.35Q50.5-0.6 49.2-0.13 47.9 0.35 46.05 0.35L46.05 0.35Q42.9 0.35 41.25-1.07 39.6-2.5 39.6-4.95L39.6-4.95Q39.6-6.9 40.52-8.28 41.45-9.65 42.92-10.58 44.4-11.5 46.12-12.05 47.85-12.6 49.5-12.9 51.15-13.2 52.4-13.4L52.4-13.4Q52.4-15.45 52.32-16.6 52.25-17.75 52.02-18.43 51.8-19.1 51.35-19.6L51.35-19.6Q50.75-20.35 49.97-20.73 49.2-21.1 48.25-21.1L48.25-21.1Q46.6-21.1 45.65-20.08 44.7-19.05 44.3-17.7 43.9-16.35 43.85-15.3L43.85-15.3Q43.3-15.3 42.47-15.38 41.65-15.45 41.25-15.65L41.25-15.65Q41.35-16.9 41.3-18.45 41.25-20 41-21.1L41-21.1Q43.05-22.15 45.32-22.75 47.6-23.35 49.5-23.35L49.5-23.35Q51.35-23.35 52.67-22.83 54-22.3 54.8-21.45L54.8-21.45Q56.1-20.2 56.5-18.18 56.9-16.15 56.9-12.8L56.9-12.8 56.9-7.3Q56.9-5.9 57.12-5.08 57.35-4.25 58-3.88 58.65-3.5 60-3.4L60-3.4Q60-2.9 59.95-2.27 59.9-1.65 59.7-1.1L59.7-1.1Q58.45-1.05 56.92-0.63 55.4-0.2 54.25 0.45ZM47.45-2.4L47.45-2.4Q48.55-2.4 49.7-3.13 50.85-3.85 51.62-5.4 52.4-6.95 52.4-9.45L52.4-9.45 52.4-11.35Q51.15-11.2 49.75-10.93 48.35-10.65 47.15-10.1 45.95-9.55 45.2-8.58 44.45-7.6 44.45-5.95L44.45-5.95Q44.45-4.1 45.35-3.25 46.25-2.4 47.45-2.4ZM86.8-14.95L86.8-6.35Q86.8-3.75 87.52-2.88 88.25-2 89.75-2L89.75-2Q89.9-1.55 89.95-1.05 90-0.55 90 0.15L90 0.15Q88.9 0.05 87.5 0.03 86.09 0 84.55 0L84.55 0Q83.55 0 82.45 0.03 81.34 0.05 80.37 0.08 79.4 0.1 78.59 0.15L78.59 0.15Q78.59-0.55 78.65-1.07 78.7-1.6 78.84-2L78.84-2Q80.65-2 81.47-2.93 82.3-3.85 82.3-6.35L82.3-6.35 82.3-13.95Q82.3-17.5 81-18.78 79.7-20.05 77.65-20.05L77.65-20.05Q76.34-20.05 75.05-19.23 73.75-18.4 72.87-16.57 72-14.75 72-11.7L72-11.7 72-6.35Q72-3.85 72.75-2.93 73.5-2 75.45-2L75.45-2Q75.59-1.55 75.65-1.05 75.7-0.55 75.7 0.15L75.7 0.15Q75 0.1 74 0.08 73 0.05 71.9 0.03 70.8 0 69.75 0L69.75 0Q68.75 0 67.65 0.03 66.55 0.05 65.55 0.08 64.55 0.1 63.8 0.15L63.8 0.15Q63.8-0.55 63.85-1.07 63.9-1.6 64.05-2L64.05-2Q66-2 66.75-2.93 67.5-3.85 67.5-6.35L67.5-6.35 67.5-16.25 72-21.15Q72-20.55 71.95-19.8 71.9-19.05 71.65-18.2L71.65-18.2Q71.8-18.45 71.95-18.78 72.09-19.1 72.4-19.5L72.4-19.5Q73.25-20.65 75.12-21.88 77-23.1 79.65-23.1L79.65-23.1Q81.55-23.1 83.17-22.33 84.8-21.55 85.8-19.78 86.8-18 86.8-14.95L86.8-14.95ZM67.5-26.9L67.5-28.75Q67.5-29.95 67.27-30.73 67.05-31.5 66.25-31.9 65.45-32.3 63.75-32.3L63.75-32.3Q63.75-32.85 63.85-33.3 63.95-33.75 64.2-34.15L64.2-34.15Q64.95-34.15 66.32-34.4 67.7-34.65 69-35.05 70.3-35.45 70.9-35.85L70.9-35.85Q71.34-35.7 71.67-35.25 72-34.8 72-33.85L72-33.85 72-26.9 67.5-26.9ZM67.5-15.5L67.5-28.75 72-28.75 72-21.15 67.5-15.5ZM93.64 0.15L93.64 0.15Q93.64-0.35 93.69-0.93 93.74-1.5 93.89-2L93.89-2Q95.89-2 96.62-2.93 97.34-3.85 97.34-6.35L97.34-6.35 97.34-16.25Q97.34-17.45 97.12-18.23 96.89-19 96.09-19.4 95.29-19.8 93.59-19.8L93.59-19.8Q93.59-20.35 93.69-20.8 93.79-21.25 94.04-21.65L94.04-21.65Q94.79-21.65 96.17-21.9 97.54-22.15 98.84-22.55 100.14-22.95 100.74-23.35L100.74-23.35Q101.19-23.2 101.52-22.75 101.84-22.3 101.84-21.35L101.84-21.35 101.84-6.35Q101.84-3.85 102.52-2.93 103.19-2 104.79-2L104.79-2Q104.94-1.5 104.99-0.85 105.04-0.2 105.04 0.15L105.04 0.15Q104.19 0.1 103.24 0.08 102.29 0.05 101.32 0.03 100.34 0 99.39 0L99.39 0Q98.44 0 97.42 0.03 96.39 0.05 95.44 0.08 94.49 0.1 93.64 0.15ZM99.19-29L99.19-29Q97.94-29 97.09-29.85 96.24-30.7 96.24-31.9L96.24-31.9Q96.24-33.25 97.14-34.1 98.04-34.95 99.19-34.95L99.19-34.95Q100.54-34.95 101.37-34.1 102.19-33.25 102.19-31.9L102.19-31.9Q102.19-30.75 101.32-29.88 100.44-29 99.19-29ZM121.29-23.35L121.29-23.35Q122.74-23.35 123.81-23.1 124.89-22.85 126.14-22.45L126.14-22.45 126.14-18.6Q125.14-19.65 123.97-20.35 122.79-21.05 121.04-21.05L121.04-21.05Q119.99-21.05 118.77-20.63 117.54-20.2 116.39-19.15 115.24-18.1 114.52-16.2 113.79-14.3 113.79-11.3L113.79-11.3Q113.79-8.1 114.74-6.23 115.69-4.35 116.99-3.53 118.29-2.7 119.39-2.7L119.39-2.7Q120.89-2.7 122.27-3.63 123.64-4.55 124.54-6.65 125.44-8.75 125.44-12.25L125.44-12.25 126.89-6.95Q126.24-5.35 125.77-4.5 125.29-3.65 125.04-3.25L125.04-3.25Q124.59-2.5 123.62-1.65 122.64-0.8 121.27-0.18 119.89 0.45 118.19 0.45L118.19 0.45Q115.29 0.45 113.19-0.73 111.09-1.9 109.97-4.35 108.84-6.8 108.84-10.65L108.84-10.65Q108.84-14.15 110.39-17.03 111.94-19.9 114.74-21.63 117.54-23.35 121.29-23.35ZM126.49-6.8L129.94-6.8Q129.94-5.65 130.14-4.88 130.34-4.1 131.02-3.75 131.69-3.4 133.04-3.4L133.04-3.4Q133.04-2.9 132.99-2.27 132.94-1.65 132.74-1.1L132.74-1.1Q131.49-1.05 129.84-0.63 128.19-0.2 127.04 0.45L127.04 0.45Q126.54 0.2 126.17-0.28 125.79-0.75 125.79-2.45L125.79-2.45Q125.79-3.45 125.97-4.23 126.14-5 126.49-6.8L126.49-6.8ZM125.44-28.75L129.94-28.75 129.94-6.35 125.44-6.35 125.44-28.75ZM128.84-35.85L128.84-35.85Q129.29-35.7 129.62-35.25 129.94-34.8 129.94-33.85L129.94-33.85 129.94-26.9 125.44-26.9 125.44-28.75Q125.44-29.95 125.22-30.73 124.99-31.5 124.19-31.9 123.39-32.3 121.69-32.3L121.69-32.3Q121.69-32.85 121.79-33.3 121.89-33.75 122.14-34.15L122.14-34.15Q122.89-34.15 124.24-34.4 125.59-34.65 126.92-35.05 128.24-35.45 128.84-35.85ZM148.34 0.45L148.34 0.45Q144.94 0.45 142.39-1.03 139.84-2.5 138.44-5.18 137.04-7.85 137.04-11.45L137.04-11.45Q137.04-14.85 138.49-17.55 139.94-20.25 142.49-21.8 145.04-23.35 148.34-23.35L148.34-23.35Q151.89-23.35 154.41-21.85 156.94-20.35 158.29-17.68 159.64-15 159.64-11.45L159.64-11.45Q159.64-8.05 158.21-5.35 156.79-2.65 154.26-1.1 151.74 0.45 148.34 0.45ZM148.74-1.95L148.74-1.95Q151.74-1.95 153.19-4.42 154.64-6.9 154.64-10.85L154.64-10.85Q154.64-13.95 153.71-16.23 152.79-18.5 151.24-19.73 149.69-20.95 147.84-20.95L147.84-20.95Q144.94-20.95 143.51-18.6 142.09-16.25 142.09-12.5L142.09-12.5Q142.09-9.15 142.91-6.78 143.74-4.4 145.24-3.18 146.74-1.95 148.74-1.95ZM185.18 0.45L185.18 0.45Q182.08 0.45 179.76-0.43 177.43-1.3 175.03-2.75L175.03-2.75Q175.33-4.65 175.41-6.55 175.48-8.45 175.48-9.85L175.48-9.85Q176.03-10 176.78-10.08 177.53-10.15 178.18-10.15L178.18-10.15Q178.33-7.6 179.11-5.78 179.88-3.95 181.56-2.95 183.23-1.95 185.88-1.95L185.88-1.95Q189.33-1.95 190.81-3.48 192.28-5 192.28-7.15L192.28-7.15Q192.28-9.35 191.08-10.78 189.88-12.2 187.98-13.2 186.08-14.2 183.96-15.15 181.83-16.1 179.93-17.35 178.03-18.6 176.83-20.48 175.63-22.35 175.63-25.25L175.63-25.25Q175.63-28.05 176.86-30.08 178.08-32.1 180.33-33.18 182.58-34.25 185.68-34.25L185.68-34.25Q187.43-34.25 189.01-33.95 190.58-33.65 191.88-33.15 193.18-32.65 194.03-32.05L194.03-32.05Q194.03-30.6 194.08-28.7 194.13-26.8 194.33-25.45L194.33-25.45Q193.78-25.25 193.01-25.13 192.23-25 191.53-25L191.53-25Q191.03-27.9 190.23-29.4 189.43-30.9 188.28-31.48 187.13-32.05 185.63-32.05L185.63-32.05Q182.98-32.05 181.48-30.75 179.98-29.45 179.98-27.1L179.98-27.1Q179.98-24.9 181.18-23.45 182.38-22 184.28-20.95 186.18-19.9 188.28-18.93 190.38-17.95 192.28-16.73 194.18-15.5 195.38-13.7 196.58-11.9 196.58-9.15L196.58-9.15Q196.58-6.65 195.38-4.45 194.18-2.25 191.68-0.9 189.18 0.45 185.18 0.45ZM209.63 0.45L209.63 0.45Q206.68 0.45 205.26-1.07 203.83-2.6 203.83-6L203.83-6 203.83-19.55Q203.08-19.8 202.28-19.98 201.48-20.15 200.23-20.2L200.23-20.2Q200.23-20.85 200.33-21.33 200.43-21.8 200.68-22.4L200.68-22.4 203.83-22.4 203.83-29Q204.83-29.25 205.81-29.8 206.78-30.35 207.53-31L207.53-31Q208.03-30.8 208.18-30.4 208.33-30 208.33-28.4L208.33-28.4 208.33-22.4 214.83-22.4Q214.83-21.9 214.73-21.33 214.63-20.75 214.38-20.2L214.38-20.2Q212.58-20.15 211.08-19.98 209.58-19.8 208.33-19.55L208.33-19.55 208.33-7.05Q208.33-5.4 208.68-4.33 209.03-3.25 209.68-2.75 210.33-2.25 211.23-2.25L211.23-2.25Q212.28-2.25 213.06-2.55 213.83-2.85 214.53-3.45L214.53-3.45Q215.18-2.7 215.28-1.8L215.28-1.8Q214.48-0.85 212.86-0.2 211.23 0.45 209.63 0.45ZM230.08 0.45L230.08 0.45Q226.68 0.45 224.13-1.03 221.58-2.5 220.18-5.18 218.78-7.85 218.78-11.45L218.78-11.45Q218.78-14.85 220.23-17.55 221.68-20.25 224.23-21.8 226.78-23.35 230.08-23.35L230.08-23.35Q233.63-23.35 236.15-21.85 238.68-20.35 240.03-17.68 241.38-15 241.38-11.45L241.38-11.45Q241.38-8.05 239.95-5.35 238.53-2.65 236-1.1 233.48 0.45 230.08 0.45ZM230.48-1.95L230.48-1.95Q233.48-1.95 234.93-4.42 236.38-6.9 236.38-10.85L236.38-10.85Q236.38-13.95 235.45-16.23 234.53-18.5 232.98-19.73 231.43-20.95 229.58-20.95L229.58-20.95Q226.68-20.95 225.25-18.6 223.83-16.25 223.83-12.5L223.83-12.5Q223.83-9.15 224.65-6.78 225.48-4.4 226.98-3.18 228.48-1.95 230.48-1.95ZM253.43-11.35L253.43-7.35Q253.43-5.2 253.88-4.08 254.33-2.95 255.33-2.53 256.33-2.1 257.88-2L257.88-2Q258.03-1.6 258.08-1.07 258.13-0.55 258.13 0.15L258.13 0.15Q257.38 0.1 256.35 0.08 255.33 0.05 254.18 0.03 253.03 0 251.83 0L251.83 0Q250.08 0 248.15 0.03 246.23 0.05 245.23 0.15L245.23 0.15Q245.23-0.55 245.28-1.07 245.33-1.6 245.48-2L245.48-2Q246.83-2.1 247.58-2.48 248.33-2.85 248.63-3.78 248.93-4.7 248.93-6.35L248.93-6.35 248.93-11.35 253.43-11.35ZM252.58-15.35L253.43-14.65 253.43-10.7 248.93-10.7 248.93-16.25 253.43-21.15Q253.43-19.45 253.13-18.07 252.83-16.7 252.58-15.35L252.58-15.35ZM253.43-12.15L252.33-15.05Q252.88-16.45 253.18-17.35 253.48-18.25 253.83-18.85L253.83-18.85Q254.93-20.6 256.43-21.75 257.93-22.9 259.88-22.9L259.88-22.9Q261.78-22.9 263.33-21.7L263.33-21.7Q263.23-20.9 263.13-19.85 263.03-18.8 263-17.75 262.98-16.7 262.98-15.8L262.98-15.8Q262.53-15.65 261.75-15.5 260.98-15.35 260.13-15.35L260.13-15.35Q260.03-17.75 259.35-18.5 258.68-19.25 257.68-19.25L257.68-19.25Q256.83-19.25 255.83-18.28 254.83-17.3 254.13-15.7 253.43-14.1 253.43-12.15L253.43-12.15ZM253.43-21.15L248.93-10.7 248.93-16.25Q248.93-17.45 248.68-18.2 248.43-18.95 247.63-19.35 246.83-19.75 245.18-19.8L245.18-19.8Q245.18-20.35 245.28-20.8 245.38-21.25 245.63-21.65L245.63-21.65Q247.18-21.75 249.18-22.25 251.18-22.75 252.33-23.35L252.33-23.35Q252.78-23.2 253.1-22.73 253.43-22.25 253.43-21.15L253.43-21.15ZM276.92 0.45L276.92 0.45Q273.37 0.45 271.02-1.15 268.67-2.75 267.5-5.48 266.32-8.2 266.32-11.45L266.32-11.45Q266.32-14.65 267.57-17.35 268.82-20.05 271.15-21.7 273.47-23.35 276.67-23.35L276.67-23.35Q279.92-23.35 281.9-21.95 283.87-20.55 284.85-18.2 285.82-15.85 286.02-13L286.02-13Q285.82-12 285.27-11.3L285.27-11.3Q284.42-11.3 282.72-11.3 281.02-11.3 278.87-11.28 276.72-11.25 274.47-11.18 272.22-11.1 270.22-11L270.22-11 270.22-13.55 280.82-13.55Q280.82-16.85 279.62-18.9 278.42-20.95 276.22-20.95L276.22-20.95Q275.02-20.95 273.87-20.23 272.72-19.5 271.97-17.68 271.22-15.85 271.22-12.5L271.22-12.5Q271.22-10.05 271.85-7.73 272.47-5.4 274.05-3.88 275.62-2.35 278.52-2.35L278.52-2.35Q280.17-2.35 281.77-3.1 283.37-3.85 284.62-5.25L284.62-5.25Q285.02-5.05 285.4-4.58 285.77-4.1 285.82-3.7L285.82-3.7Q284.12-1.45 281.9-0.5 279.67 0.45 276.92 0.45Z" opacity="1" transform="matrix(1,0,0,1,0,0)" fill="#ffffff" class="wordmark-text-0" data-fill-palette-color="primary" id="text-0"></path></svg></g></svg></g><g transform="matrix(1,0,0,1,0,66.028694409216)"><svg viewBox="0 0 232.209792 21.66893999315459" height="21.66893999315459" width="232.209792"><g transform="matrix(1,0,0,1,0,0)"><svg width="232.209792" viewBox="0.22 -37.5 513.52 47.92" height="21.66893999315459" data-palette-color="#1c4b82"><path d="M14.53-26.42L14.53-22.97 0.22-22.97 0.22-26.42 14.53-26.42ZM5.03-32.84L9.59-32.84 9.59-6.54Q9.59-5.18 10.01-4.49 10.42-3.81 11.08-3.59 11.74-3.37 12.5-3.37L12.5-3.37Q13.06-3.37 13.68-3.47 14.31-3.56 14.6-3.64L14.6-3.64 14.62 0Q14.09 0.17 13.22 0.33 12.35 0.49 11.13 0.49L11.13 0.49Q9.47 0.49 8.08-0.17 6.69-0.83 5.86-2.38 5.03-3.93 5.03-6.57L5.03-6.57 5.03-32.84ZM30.76 0.49L30.76 0.49Q27.07 0.49 24.35-1.16 21.63-2.81 20.13-5.69 18.63-8.57 18.63-12.28L18.63-12.28 18.63-13.33Q18.63-17.63 20.27-20.67 21.92-23.71 24.57-25.31 27.22-26.9 30.17-26.9L30.17-26.9Q33.98-26.9 36.39-25.21 38.79-23.51 39.93-20.59 41.06-17.68 41.06-13.99L41.06-13.99 41.06-11.96 21.34-11.96 21.34-15.63 36.5-15.63 36.5-15.97Q36.4-17.72 35.79-19.4 35.18-21.07 33.84-22.16 32.49-23.24 30.17-23.24L30.17-23.24Q28.12-23.24 26.55-22.08 24.97-20.92 24.08-18.71 23.19-16.5 23.19-13.33L23.19-13.33 23.19-12.28Q23.19-9.77 24.12-7.7 25.05-5.64 26.8-4.41 28.56-3.17 31-3.17L31-3.17Q33.4-3.17 35.06-4.15 36.72-5.13 37.96-6.76L37.96-6.76 40.72-4.61Q39.45-2.66 37.07-1.09 34.69 0.49 30.76 0.49ZM56.9-3.17L56.9-3.17Q58.52-3.17 59.88-3.85 61.25-4.52 62.13-5.69 63.01-6.86 63.13-8.35L63.13-8.35 67.45-8.35Q67.33-6.01 65.86-3.99 64.4-1.98 62.06-0.74 59.71 0.49 56.9 0.49L56.9 0.49Q52.92 0.49 50.31-1.33 47.7-3.15 46.42-6.15 45.14-9.16 45.14-12.7L45.14-12.7 45.14-13.72Q45.14-17.29 46.43-20.28 47.72-23.27 50.34-25.09 52.95-26.9 56.9-26.9L56.9-26.9Q60-26.9 62.34-25.65 64.67-24.39 66-22.23 67.33-20.07 67.45-17.33L67.45-17.33 63.13-17.33Q63.01-18.97 62.21-20.31 61.42-21.66 60.07-22.45 58.71-23.24 56.9-23.24L56.9-23.24Q54.15-23.24 52.57-21.83 51-20.41 50.35-18.23 49.7-16.04 49.7-13.72L49.7-13.72 49.7-12.7Q49.7-10.38 50.34-8.18 50.97-5.98 52.55-4.58 54.12-3.17 56.9-3.17ZM77.07-37.5L77.07 0 72.5 0 72.5-37.5 77.07-37.5ZM75.99-14.23L74.09-14.31Q74.14-17.92 75.48-20.76 76.82-23.61 79.23-25.26 81.63-26.9 84.83-26.9L84.83-26.9Q87.44-26.9 89.34-25.94 91.23-24.98 92.27-22.88 93.3-20.78 93.3-17.31L93.3-17.31 93.3 0 88.74 0 88.74-17.36Q88.74-19.43 88.14-20.7 87.54-21.97 86.37-22.55 85.2-23.12 83.49-23.12L83.49-23.12Q81.8-23.12 80.44-22.41 79.07-21.7 78.07-20.46 77.07-19.21 76.53-17.61 75.99-16.02 75.99-14.23L75.99-14.23ZM104.6-20.78L104.6 0 100.04 0 100.04-26.42 104.36-26.42 104.6-20.78ZM103.53-14.23L101.63-14.31Q101.67-17.92 103.02-20.76 104.36-23.61 106.76-25.26 109.17-26.9 112.37-26.9L112.37-26.9Q114.98-26.9 116.87-25.94 118.76-24.98 119.8-22.88 120.84-20.78 120.84-17.31L120.84-17.31 120.84 0 116.27 0 116.27-17.36Q116.27-19.43 115.68-20.7 115.08-21.97 113.91-22.55 112.73-23.12 111.03-23.12L111.03-23.12Q109.34-23.12 107.97-22.41 106.61-21.7 105.61-20.46 104.6-19.21 104.07-17.61 103.53-16.02 103.53-14.23L103.53-14.23ZM126.48-12.92L126.48-13.48Q126.48-17.31 127.94-20.34 129.41-23.36 132.09-25.13 134.78-26.9 138.46-26.9L138.46-26.9Q142.2-26.9 144.91-25.13 147.62-23.36 149.07-20.34 150.52-17.31 150.52-13.48L150.52-13.48 150.52-12.92Q150.52-9.11 149.07-6.07 147.62-3.03 144.92-1.27 142.22 0.49 138.51 0.49L138.51 0.49Q134.8 0.49 132.1-1.27 129.41-3.03 127.94-6.07 126.48-9.11 126.48-12.92L126.48-12.92ZM131.04-13.48L131.04-12.92Q131.04-10.3 131.87-8.08 132.7-5.86 134.35-4.52 136-3.17 138.51-3.17L138.51-3.17Q141-3.17 142.65-4.52 144.3-5.86 145.13-8.08 145.96-10.3 145.96-12.92L145.96-12.92 145.96-13.48Q145.96-16.09 145.13-18.31 144.3-20.53 142.64-21.89 140.98-23.24 138.46-23.24L138.46-23.24Q136-23.24 134.34-21.89 132.68-20.53 131.86-18.31 131.04-16.09 131.04-13.48L131.04-13.48ZM161.14-37.5L161.14 0 156.58 0 156.58-37.5 161.14-37.5ZM167.17-12.92L167.17-13.48Q167.17-17.31 168.63-20.34 170.1-23.36 172.79-25.13 175.47-26.9 179.16-26.9L179.16-26.9Q182.89-26.9 185.6-25.13 188.31-23.36 189.77-20.34 191.22-17.31 191.22-13.48L191.22-13.48 191.22-12.92Q191.22-9.11 189.77-6.07 188.31-3.03 185.61-1.27 182.92 0.49 179.21 0.49L179.21 0.49Q175.5 0.49 172.8-1.27 170.1-3.03 168.63-6.07 167.17-9.11 167.17-12.92L167.17-12.92ZM171.74-13.48L171.74-12.92Q171.74-10.3 172.57-8.08 173.4-5.86 175.04-4.52 176.69-3.17 179.21-3.17L179.21-3.17Q181.7-3.17 183.34-4.52 184.99-5.86 185.82-8.08 186.65-10.3 186.65-12.92L186.65-12.92 186.65-13.48Q186.65-16.09 185.82-18.31 184.99-20.53 183.33-21.89 181.67-23.24 179.16-23.24L179.16-23.24Q176.69-23.24 175.03-21.89 173.37-20.53 172.55-18.31 171.74-16.09 171.74-13.48L171.74-13.48ZM213.99-26.42L218.14-26.42 218.14-0.56Q218.14 2.93 216.72 5.4 215.29 7.86 212.76 9.14 210.23 10.42 206.94 10.42L206.94 10.42Q205.57 10.42 203.73 10 201.88 9.57 200.11 8.56 198.34 7.54 197.15 5.83L197.15 5.83 199.52 3.17Q201.18 5.18 203 5.97 204.81 6.76 206.6 6.76L206.6 6.76Q209.79 6.76 211.69 4.94 213.58 3.13 213.58-0.34L213.58-0.34 213.58-20.61 213.99-26.42ZM195.81-12.92L195.81-13.43Q195.81-17.46 197.07-20.5 198.34-23.54 200.69-25.22 203.03-26.9 206.25-26.9L206.25-26.9Q208.74-26.9 210.61-26.04 212.48-25.17 213.79-23.54 215.09-21.9 215.86-19.58 216.63-17.26 216.92-14.36L216.92-14.36 216.92-11.99Q216.56-8.15 215.3-5.36 214.04-2.56 211.8-1.04 209.55 0.49 206.21 0.49L206.21 0.49Q203.03 0.49 200.7-1.26 198.37-3 197.09-6.03 195.81-9.06 195.81-12.92L195.81-12.92ZM200.37-13.43L200.37-12.92Q200.37-10.28 201.09-8.11 201.81-5.93 203.35-4.63 204.89-3.32 207.33-3.32L207.33-3.32Q209.57-3.32 211.02-4.27 212.46-5.22 213.33-6.79 214.21-8.35 214.7-10.18L214.7-10.18 214.7-16.11Q214.41-17.46 213.87-18.71 213.33-19.97 212.46-20.96 211.58-21.95 210.32-22.53 209.06-23.12 207.38-23.12L207.38-23.12Q204.91-23.12 203.36-21.8 201.81-20.48 201.09-18.27 200.37-16.06 200.37-13.43L200.37-13.43ZM229.91-26.42L229.91 0 225.34 0 225.34-26.42 229.91-26.42ZM225-33.45L225-33.45Q225-34.52 225.67-35.28 226.34-36.04 227.66-36.04L227.66-36.04Q228.98-36.04 229.68-35.28 230.37-34.52 230.37-33.45L230.37-33.45Q230.37-32.4 229.68-31.65 228.98-30.91 227.66-30.91L227.66-30.91Q226.34-30.91 225.67-31.65 225-32.4 225-33.45ZM247.7-3.17L247.7-3.17Q249.32-3.17 250.68-3.85 252.05-4.52 252.93-5.69 253.81-6.86 253.93-8.35L253.93-8.35 258.25-8.35Q258.13-6.01 256.66-3.99 255.2-1.98 252.86-0.74 250.51 0.49 247.7 0.49L247.7 0.49Q243.73 0.49 241.11-1.33 238.5-3.15 237.22-6.15 235.94-9.16 235.94-12.7L235.94-12.7 235.94-13.72Q235.94-17.29 237.23-20.28 238.52-23.27 241.14-25.09 243.75-26.9 247.7-26.9L247.7-26.9Q250.81-26.9 253.14-25.65 255.47-24.39 256.8-22.23 258.13-20.07 258.25-17.33L258.25-17.33 253.93-17.33Q253.81-18.97 253.01-20.31 252.22-21.66 250.87-22.45 249.51-23.24 247.7-23.24L247.7-23.24Q244.95-23.24 243.37-21.83 241.8-20.41 241.15-18.23 240.5-16.04 240.5-13.72L240.5-13.72 240.5-12.7Q240.5-10.38 241.14-8.18 241.77-5.98 243.35-4.58 244.92-3.17 247.7-3.17ZM278.88-4.52L278.88-18.12Q278.88-20.48 277.47-21.89 276.07-23.29 273.34-23.29L273.34-23.29Q271.65-23.29 270.37-22.71 269.09-22.12 268.38-21.17 267.67-20.21 267.67-19.09L267.67-19.09 263.11-19.09Q263.11-21 264.4-22.79 265.7-24.58 268.05-25.74 270.41-26.9 273.61-26.9L273.61-26.9Q276.49-26.9 278.71-25.93 280.93-24.95 282.19-22.99 283.44-21.02 283.44-18.07L283.44-18.07 283.44-5.76Q283.44-4.44 283.68-2.95 283.91-1.46 284.37-0.39L284.37-0.39 284.37 0 279.61 0Q279.27-0.78 279.07-2.09 278.88-3.39 278.88-4.52L278.88-4.52ZM279.66-16.02L279.71-12.84 275.17-12.84Q271.31-12.84 269.21-11.62 267.11-10.4 267.11-7.96L267.11-7.96Q267.11-6.05 268.39-4.74 269.67-3.42 272.14-3.42L272.14-3.42Q274.22-3.42 275.8-4.3 277.39-5.18 278.32-6.47 279.24-7.76 279.32-8.96L279.32-8.96 281.27-6.79Q281.1-5.76 280.34-4.52 279.59-3.27 278.33-2.14 277.07-1 275.35-0.26 273.63 0.49 271.48 0.49L271.48 0.49Q268.8 0.49 266.78-0.55 264.77-1.59 263.66-3.37 262.55-5.15 262.55-7.32L262.55-7.32Q262.55-11.6 265.77-13.81 268.99-16.02 274.44-16.02L274.44-16.02 279.66-16.02ZM295.48-37.5L295.48 0 290.91 0 290.91-37.5 295.48-37.5ZM330.46-7.01L330.46-7.01Q330.46-7.98 330.03-8.83 329.6-9.67 328.31-10.36 327.02-11.06 324.4-11.6L324.4-11.6Q321.47-12.21 319.34-13.15 317.2-14.09 316.04-15.55 314.88-17.02 314.88-19.19L314.88-19.19Q314.88-21.29 316.09-23.03 317.3-24.78 319.51-25.84 321.72-26.9 324.67-26.9L324.67-26.9Q327.85-26.9 330.1-25.79 332.36-24.68 333.56-22.81 334.76-20.95 334.76-18.68L334.76-18.68 330.19-18.68Q330.19-20.31 328.76-21.78 327.33-23.24 324.67-23.24L324.67-23.24Q322.82-23.24 321.66-22.67 320.5-22.09 319.97-21.2 319.45-20.31 319.45-19.34L319.45-19.34Q319.45-18.36 319.94-17.64 320.42-16.92 321.73-16.36 323.04-15.8 325.53-15.23L325.53-15.23Q328.77-14.5 330.87-13.48 332.97-12.45 334-10.96 335.02-9.47 335.02-7.32L335.02-7.32Q335.02-5.03 333.75-3.26 332.48-1.49 330.19-0.5 327.89 0.49 324.79 0.49L324.79 0.49Q321.3 0.49 318.89-0.76 316.47-2 315.22-3.97 313.98-5.93 313.98-8.13L313.98-8.13 318.54-8.13Q318.67-6.27 319.63-5.19 320.59-4.1 322-3.64 323.4-3.17 324.79-3.17L324.79-3.17Q326.65-3.17 327.91-3.67 329.16-4.17 329.81-5.04 330.46-5.91 330.46-7.01ZM339.71-12.92L339.71-13.48Q339.71-17.31 341.17-20.34 342.64-23.36 345.32-25.13 348.01-26.9 351.7-26.9L351.7-26.9Q355.43-26.9 358.14-25.13 360.85-23.36 362.3-20.34 363.76-17.31 363.76-13.48L363.76-13.48 363.76-12.92Q363.76-9.11 362.3-6.07 360.85-3.03 358.15-1.27 355.46 0.49 351.74 0.49L351.74 0.49Q348.03 0.49 345.34-1.27 342.64-3.03 341.17-6.07 339.71-9.11 339.71-12.92L339.71-12.92ZM344.27-13.48L344.27-12.92Q344.27-10.3 345.1-8.08 345.93-5.86 347.58-4.52 349.23-3.17 351.74-3.17L351.74-3.17Q354.23-3.17 355.88-4.52 357.53-5.86 358.36-8.08 359.19-10.3 359.19-12.92L359.19-12.92 359.19-13.48Q359.19-16.09 358.36-18.31 357.53-20.53 355.87-21.89 354.21-23.24 351.7-23.24L351.7-23.24Q349.23-23.24 347.57-21.89 345.91-20.53 345.09-18.31 344.27-16.09 344.27-13.48L344.27-13.48ZM374.37-37.5L374.37 0 369.81 0 369.81-37.5 374.37-37.5ZM397.74-6.1L397.74-26.42 402.3-26.42 402.3 0 397.96 0 397.74-6.1ZM398.59-11.67L400.49-11.72Q400.49-8.2 399.49-5.44 398.49-2.69 396.22-1.1 393.95 0.49 390.14 0.49L390.14 0.49Q386.26 0.49 383.87-1.81 381.48-4.1 381.48-9.38L381.48-9.38 381.48-26.42 386.04-26.42 386.04-9.33Q386.04-6.93 386.74-5.63 387.43-4.32 388.54-3.82 389.65-3.32 390.88-3.32L390.88-3.32Q393.76-3.32 395.44-4.43 397.13-5.54 397.86-7.45 398.59-9.35 398.59-11.67L398.59-11.67ZM420.24-26.42L420.24-22.97 405.94-22.97 405.94-26.42 420.24-26.42ZM410.75-32.84L415.31-32.84 415.31-6.54Q415.31-5.18 415.73-4.49 416.14-3.81 416.8-3.59 417.46-3.37 418.22-3.37L418.22-3.37Q418.78-3.37 419.4-3.47 420.02-3.56 420.32-3.64L420.32-3.64 420.34 0Q419.8 0.17 418.94 0.33 418.07 0.49 416.85 0.49L416.85 0.49Q415.19 0.49 413.8-0.17 412.41-0.83 411.58-2.38 410.75-3.93 410.75-6.57L410.75-6.57 410.75-32.84ZM430.45-26.42L430.45 0 425.88 0 425.88-26.42 430.45-26.42ZM425.54-33.45L425.54-33.45Q425.54-34.52 426.21-35.28 426.88-36.04 428.2-36.04L428.2-36.04Q429.52-36.04 430.21-35.28 430.91-34.52 430.91-33.45L430.91-33.45Q430.91-32.4 430.21-31.65 429.52-30.91 428.2-30.91L428.2-30.91Q426.88-30.91 426.21-31.65 425.54-32.4 425.54-33.45ZM436.47-12.92L436.47-13.48Q436.47-17.31 437.94-20.34 439.4-23.36 442.09-25.13 444.77-26.9 448.46-26.9L448.46-26.9Q452.2-26.9 454.91-25.13 457.62-23.36 459.07-20.34 460.52-17.31 460.52-13.48L460.52-13.48 460.52-12.92Q460.52-9.11 459.07-6.07 457.62-3.03 454.92-1.27 452.22 0.49 448.51 0.49L448.51 0.49Q444.8 0.49 442.1-1.27 439.4-3.03 437.94-6.07 436.47-9.11 436.47-12.92L436.47-12.92ZM441.04-13.48L441.04-12.92Q441.04-10.3 441.87-8.08 442.7-5.86 444.35-4.52 445.99-3.17 448.51-3.17L448.51-3.17Q451-3.17 452.65-4.52 454.3-5.86 455.13-8.08 455.96-10.3 455.96-12.92L455.96-12.92 455.96-13.48Q455.96-16.09 455.13-18.31 454.3-20.53 452.64-21.89 450.98-23.24 448.46-23.24L448.46-23.24Q445.99-23.24 444.33-21.89 442.67-20.53 441.86-18.31 441.04-16.09 441.04-13.48L441.04-13.48ZM470.75-20.78L470.75 0 466.18 0 466.18-26.42 470.5-26.42 470.75-20.78ZM469.67-14.23L467.77-14.31Q467.82-17.92 469.16-20.76 470.5-23.61 472.91-25.26 475.31-26.9 478.51-26.9L478.51-26.9Q481.12-26.9 483.02-25.94 484.91-24.98 485.95-22.88 486.98-20.78 486.98-17.31L486.98-17.31 486.98 0 482.42 0 482.42-17.36Q482.42-19.43 481.82-20.7 481.22-21.97 480.05-22.55 478.88-23.12 477.17-23.12L477.17-23.12Q475.48-23.12 474.12-22.41 472.75-21.7 471.75-20.46 470.75-19.21 470.21-17.61 469.67-16.02 469.67-14.23L469.67-14.23ZM509.17-7.01L509.17-7.01Q509.17-7.98 508.75-8.83 508.32-9.67 507.03-10.36 505.73-11.06 503.12-11.6L503.12-11.6Q500.19-12.21 498.05-13.15 495.92-14.09 494.76-15.55 493.6-17.02 493.6-19.19L493.6-19.19Q493.6-21.29 494.81-23.03 496.01-24.78 498.22-25.84 500.43-26.9 503.39-26.9L503.39-26.9Q506.56-26.9 508.82-25.79 511.08-24.68 512.27-22.81 513.47-20.95 513.47-18.68L513.47-18.68 508.9-18.68Q508.9-20.31 507.48-21.78 506.05-23.24 503.39-23.24L503.39-23.24Q501.53-23.24 500.37-22.67 499.21-22.09 498.69-21.2 498.16-20.31 498.16-19.34L498.16-19.34Q498.16-18.36 498.65-17.64 499.14-16.92 500.45-16.36 501.75-15.8 504.24-15.23L504.24-15.23Q507.49-14.5 509.59-13.48 511.69-12.45 512.71-10.96 513.74-9.47 513.74-7.32L513.74-7.32Q513.74-5.03 512.47-3.26 511.2-1.49 508.9-0.5 506.61 0.49 503.51 0.49L503.51 0.49Q500.02 0.49 497.6-0.76 495.18-2 493.94-3.97 492.69-5.93 492.69-8.13L492.69-8.13 497.26-8.13Q497.38-6.27 498.35-5.19 499.31-4.1 500.71-3.64 502.12-3.17 503.51-3.17L503.51-3.17Q505.36-3.17 506.62-3.67 507.88-4.17 508.53-5.04 509.17-5.91 509.17-7.01Z" opacity="1" transform="matrix(1,0,0,1,0,0)" fill="#ffffff" class="slogan-text-1" data-fill-palette-color="secondary" id="text-1"></path></svg></g></svg></g></svg></g></svg></g><g><svg viewBox="0 0 245.65351679999995 201.63816517701042" height="201.63816517701042" width="245.65351679999995"><g><svg xmlns="http://www.w3.org/2000/svg" xmlns:xlink="http://www.w3.org/1999/xlink" version="1.1" x="0" y="0" viewBox="0.9330000000000038 7.918 98.14899999999999 80.56299999999999" enable-background="new 0 0 100 100" xml:space="preserve" height="201.63816517701042" width="245.65351679999995" class="icon-icon-0" data-fill-palette-color="accent" id="icon-0"><g fill="#1c4b82" data-fill-palette-color="accent"><g fill="#1c4b82" data-fill-palette-color="accent"><g fill="#1c4b82" data-fill-palette-color="accent"><g fill="#1c4b82" data-fill-palette-color="accent"><path d="M99.082 24.697v7.389c-0.625 1.237-1.669 2.223-2.912 2.731-2.353 0.992-4.78 0.047-6.706-2.585v-8.013h-2.918v8.276l-0.17-0.076c-0.852 1.874-2.62 3.187-4.499 3.344-1.914 0.163-3.724-0.852-5.253-2.947v-8.013h-2.918v7.114l-0.175-0.082c-0.841 1.861-2.598 3.175-4.465 3.344-1.932 0.175-3.747-0.846-5.282-2.947v-8.013h-2.918v8.369c-0.98 1.535-2.58 2.521-4.249 2.603-1.855 0.088-3.606-0.928-5.089-2.959v-8.013H48.61v8.369c-0.986 1.523-2.626 2.539-4.272 2.609-1.85 0.07-3.589-0.939-5.066-2.965v-8.013h-2.918v7.698l-0.175-0.082c-0.846 1.873-2.614 3.187-4.494 3.344-1.915 0.164-3.724-0.852-5.253-2.947v-8.013h-2.918v8.801c-0.899 1.745-2.603 2.941-4.412 3.076-2.008 0.152-3.893-0.992-5.457-3.297v-8.58h-2.918v8.795c-0.735 1.424-2.054 2.527-3.508 2.93-1.4 0.385-2.825 0.111-4.12-0.793-0.771-0.537-1.5-1.29-2.166-2.241v-8.422L7.325 7.918h84.876l6.729 16.837L99.082 24.697z" fill="#ffffff" data-fill-palette-color="accent"></path><path d="M95.276 38.062v50.419H84.089V48.305H55.795v40.176H3.724V38.675c0.741 0.233 1.5 0.35 2.264 0.35 0.671 0 1.343-0.087 2.002-0.269 1.692-0.467 3.222-1.5 4.342-2.895 2.34 2.632 4.827 3.163 6.449 3.163 0.187 0 0.368-0.006 0.537-0.018 2.381-0.175 4.628-1.5 6.082-3.507 2.177 2.153 4.412 2.615 5.918 2.615 0.222 0 0.426-0.012 0.613-0.029 2.218-0.187 4.319-1.377 5.76-3.175 1.838 2.083 4.08 3.204 6.443 3.204 0.111 0 0.222 0 0.327-0.006 2.194-0.094 4.29-1.156 5.784-2.872 1.786 1.874 3.91 2.877 6.151 2.877 0.123 0 0.245 0 0.368-0.006 2.171-0.111 4.242-1.167 5.736-2.86 2.253 2.37 4.6 2.866 6.169 2.866 0.239 0 0.461-0.012 0.66-0.029 2.071-0.187 4.044-1.255 5.457-2.877 2.422 2.913 5.03 3.49 6.723 3.49 0.222 0 0.427-0.012 0.613-0.029 2.346-0.198 4.563-1.523 6.011-3.502 1.611 1.693 3.759 2.959 6.21 2.959C94.646 38.126 94.962 38.109 95.276 38.062zM44.052 67.845v-19.54H14.001v19.54H44.052z" fill="#ffffff" data-fill-palette-color="accent"></path></g></g></g></g></svg></g></svg></g></svg></g><defs></defs></svg><rect width="395.5199999999999" height="121.73685930112748" fill="none" stroke="none" visibility="hidden"></rect></g></svg></g></svg>